<svg fill="#FFFFFF" xmlns="http://www.w3.org/2000/svg" viewBox="0 0 32 32" enable-background="new 0 0 32 32" x="0px" y="0px"><g><path d="M15 26c-.912 0-1.77-.355-2.415-1.001l-7.585-7.584c-.654-.655-1-1.49-1-2.415 0-.912.355-1.77 1-2.415l8.586-8.585-2.293-2.293c-.391-.391-.391-1.023 0-1.414s1.023-.391 1.414 0l12.938 12.937c.976.976.976 2.563 0 3.539l-8.229 8.229c-.646.647-1.504 1.002-2.416 1.002zm0-20.586l-8.585 8.586c-.271.271-.415.617-.415 1 0 .399.132.718.415 1l7.585 7.585c.535.535 1.466.535 2 0l8.23-8.229c.196-.196.196-.515 0-.711l-9.23-9.231zM24 32h-18c-.552 0-1-.447-1-1s.448-1 1-1h18c.553 0 1 .447 1 1s-.447 1-1 1zM23.5 24.333c0-1.929 2.145-3.433 2.5-5.333.359 1.903 2.5 3.417 2.5 5.333 0 1.473-1.119 2.667-2.5 2.667s-2.5-1.194-2.5-2.667zM24.966 16.034l-8.259 8.259c-.943.943-2.472.943-3.415 0l-7.585-7.585c-.471-.472-.707-1.708-.707-1.708h19.538c.539 0 .81.652.428 1.034z"/></g></svg>